<svg width="808" height="793" viewBox="0 0 808 793" fill="none" xmlns="http://www.w3.org/2000/svg">
<path d="M22.0912 447.568C24.0746 447.207 25.5655 447.423 26.564 448.217C27.5904 449.03 28.2305 450.133 28.4843 451.526C28.6478 452.424 28.6095 453.284 28.3693 454.109C28.1528 454.929 27.6841 455.636 26.963 456.231C26.242 456.826 25.2203 457.244 23.8981 457.485C21.9384 457.842 20.4453 457.614 19.4189 456.801C18.3925 455.988 17.7546 454.896 17.5051 453.527C17.2512 452.134 17.4611 450.876 18.1348 449.753C18.8127 448.654 20.1315 447.925 22.0912 447.568Z" fill="black"/>
<path d="M39.2027 478.76L43.18 492.937L39.6445 493.929L36.8147 483.842L30.8876 485.505L33.4743 494.725L29.9734 495.707L27.3867 486.487L17.8548 489.162L16.7073 485.072L39.2027 478.76Z" fill="black"/>
<path d="M47.1543 505.101L33.4568 509.99C31.6486 510.636 30.5103 511.552 30.0419 512.738C29.5816 513.947 29.6096 515.275 30.126 516.722C30.6424 518.168 31.4575 519.203 32.5713 519.824C33.6932 520.469 35.1583 520.468 36.9665 519.823L50.6641 514.933L52.0921 518.934L38.3946 523.823C35.5919 524.824 33.1436 524.819 31.0499 523.808C28.9787 522.789 27.4389 520.866 26.4304 518.041C25.4218 515.216 25.3964 512.753 26.3541 510.653C27.3344 508.544 29.2259 506.99 32.0287 505.99L45.7262 501.1L47.1543 505.101Z" fill="black"/>
<path d="M39.5857 540.014L43.4143 548.83L40.0132 550.307L34.4925 537.594L55.9232 528.288L57.6152 532.184L39.5857 540.014Z" fill="black"/>
<path d="M49.2772 560.862L53.6103 569.442L50.3005 571.113L44.0523 558.742L64.9075 548.209L66.8225 552.001L49.2772 560.862Z" fill="black"/>
<path d="M83.3241 593.608C84.8347 592.184 84.9167 590.421 83.5702 588.319C82.91 587.289 82.1799 586.616 81.3801 586.302C80.6134 585.995 79.937 586.03 79.351 586.405C78.7649 586.781 78.4167 587.26 78.3062 587.844C78.2288 588.435 78.3011 589.215 78.5232 590.185L79.5942 595.527C79.9606 597.344 79.9617 598.926 79.5977 600.271C79.2539 601.602 78.4353 602.683 77.142 603.511C75.3636 604.651 73.5218 604.89 71.6165 604.229C69.7313 603.556 67.999 601.987 66.4195 599.521C65.0212 597.339 64.4239 595.227 64.6275 593.187C64.8286 590.921 65.9743 589.061 68.0646 587.608L70.3367 591.154C68.7201 592.19 68.2368 593.682 68.8871 595.632C69.0693 596.227 69.4258 596.94 69.9566 597.768C70.4874 598.597 71.1815 599.235 72.0388 599.683C72.9163 600.119 73.6986 600.116 74.3857 599.676C75.093 599.223 75.5055 598.688 75.6233 598.071C75.7613 597.441 75.7135 596.588 75.4802 595.512L74.5209 590.611C74.1359 588.72 74.0786 587.118 74.3488 585.805C74.6191 584.491 75.4514 583.388 76.8457 582.495C78.4826 581.446 80.1838 581.254 81.9492 581.919C83.768 582.578 85.3831 584.008 86.7943 586.211C88.2184 588.434 88.7971 590.472 88.5304 592.324C88.2968 594.184 87.3187 595.794 85.5963 597.154L83.3241 593.608Z" fill="black"/>
<path d="M94.9903 599.523L106.119 614.577L103.166 616.759L98.8644 610.941L83.0297 622.647L80.5044 619.231L96.3391 607.525L92.0376 601.706L94.9903 599.523Z" fill="black"/>
<path d="M114.66 625.025L118.106 629.088L105.248 650.048L102.337 646.616L105.133 642.121L99.5211 635.504L94.6063 637.501L91.6955 634.07L114.66 625.025ZM102.663 634.256L106.901 639.252L112.465 630.285L102.663 634.256Z" fill="black"/>
<path d="M134.85 646.63C135.857 647.66 136.6 648.678 137.081 649.685C137.579 650.675 137.873 651.663 137.964 652.648C138.145 654.585 137.606 656.488 136.346 658.358L132.583 655.693C133.19 654.563 133.474 653.446 133.436 652.342C133.431 651.239 133.01 650.258 132.171 649.4C131.03 648.233 129.618 647.767 127.935 648.003C126.116 648.271 124.263 649.327 122.375 651.173C120.504 653.001 119.373 654.779 118.979 656.506C118.604 658.215 118.994 659.662 120.152 660.847C121.31 662.031 122.465 662.647 123.619 662.694C124.789 662.724 125.83 662.294 126.739 661.405L129.935 664.675C128.064 666.503 126.027 667.32 123.823 667.126C121.653 666.931 119.553 665.796 117.523 663.719C115.359 661.505 114.411 658.991 114.681 656.177C114.968 653.312 116.467 650.554 119.179 647.903C121.925 645.219 124.733 643.8 127.603 643.646C130.354 643.507 132.77 644.502 134.85 646.63Z" fill="black"/>
<path d="M150.689 662.561L144.315 669.756L157.588 668.672L161.953 672.539L147.276 673.581L146.973 690.481L142.85 686.829L143.19 673.904L140.472 674.095L135.197 680.05L131.99 677.209L147.482 659.72L150.689 662.561Z" fill="black"/>
<path d="M179.758 686.429L191.75 694.972L189.619 697.963L181.087 691.884L177.515 696.898L185.314 702.454L183.205 705.416L175.405 699.859L169.661 707.922L166.201 705.458L179.758 686.429Z" fill="black"/>
<path d="M192.53 718.876L200.682 723.969L198.717 727.114L186.963 719.769L199.344 699.955L202.946 702.206L192.53 718.876Z" fill="black"/>
<path d="M217.902 711.24L231.14 718.394L229.394 721.624L219.893 716.49L216.966 721.905L225.866 726.715L224.12 729.945L215.221 725.136L212.294 730.552L221.795 735.686L220.032 738.949L206.794 731.794L217.902 711.24Z" fill="black"/>
<path d="M247.479 726.248C250.717 727.709 252.898 729.85 254.02 732.673C255.165 735.506 255.003 738.552 253.533 741.812C252.073 745.05 249.902 747.178 247.021 748.196C244.162 749.224 241.114 749.007 237.875 747.547L230.951 744.425L240.555 723.126L247.479 726.248ZM236.44 742.675L239.459 744.036C241.472 744.943 243.407 745 245.266 744.206C247.04 743.426 248.395 741.997 249.332 739.918C250.289 737.796 250.473 735.812 249.883 733.967C249.26 732.08 247.931 730.677 245.896 729.76L242.877 728.399L236.44 742.675Z" fill="black"/>
<path d="M273.498 757.869C271.593 760.165 269.298 760.826 266.613 759.852C263.86 758.854 261.969 756.994 260.94 754.272C259.867 751.457 259.936 748.38 261.148 745.041C262.424 741.522 264.44 739.061 267.195 737.661C269.857 736.303 272.7 736.173 275.723 737.269C277.776 738.014 279.327 739.087 280.376 740.489C281.456 741.876 282.043 743.672 282.137 745.876L277.698 745.338C277.198 742.987 276.034 741.48 274.207 740.817C272.537 740.211 270.892 740.419 269.271 741.439C267.596 742.466 266.321 744.186 265.446 746.6C264.619 748.879 264.467 750.917 264.989 752.715C265.497 754.482 266.597 755.673 268.289 756.286C269.733 756.81 271.085 756.777 272.346 756.188C273.637 755.584 274.582 754.458 275.179 752.811L275.228 752.676L270.324 750.782L271.257 748.21L280.022 751.389L275.922 762.693L272.673 761.514L273.498 757.869Z" fill="black"/>
<path d="M292.471 763.91L301.706 766.577L300.677 770.139L287.361 766.293L293.844 743.847L297.925 745.025L292.471 763.91Z" fill="black"/>
<path d="M315.099 749.621L319.234 750.598L313.862 773.336L309.728 772.359L315.099 749.621Z" fill="black"/>
<path d="M334.059 753.73L341.356 771.813L344.202 755.499L348.387 756.229L344.372 779.246L340.116 778.503L332.599 759.797L329.654 776.678L325.469 775.948L329.485 752.931L334.059 753.73Z" fill="black"/>
<path d="M371.048 778.542C369.776 781.241 367.719 782.454 364.876 782.18C361.961 781.9 359.666 780.571 357.99 778.191C356.249 775.733 355.548 772.737 355.888 769.201C356.246 765.474 357.584 762.589 359.903 760.545C362.142 758.567 364.863 757.731 368.064 758.039C370.238 758.248 372.008 758.9 373.373 759.996C374.765 761.07 375.781 762.662 376.422 764.773L371.989 765.36C370.918 763.207 369.415 762.038 367.48 761.852C365.712 761.682 364.171 762.294 362.856 763.686C361.49 765.098 360.685 767.082 360.439 769.638C360.207 772.051 360.568 774.063 361.523 775.674C362.455 777.258 363.818 778.137 365.609 778.309C367.138 778.456 368.44 778.087 369.513 777.201C370.613 776.294 371.247 774.969 371.414 773.225L371.428 773.081L366.207 772.471L366.468 769.748L375.75 770.64L374.599 782.609L371.159 782.278L371.048 778.542Z" fill="black"/>
<path d="M403.205 760.401L408.887 777.985L413.399 761.641L416.278 761.554L422.06 777.658L426.99 759.681L431.776 759.536L424.458 783.132L419.996 783.267L415.208 770.23L411.252 783.532L406.79 783.667L398.455 760.545L403.205 760.401Z" fill="black"/>
<path d="M439.628 758.511L443.855 758.083L446.207 781.329L441.981 781.756L439.628 758.511Z" fill="black"/>
<path d="M451.419 757.32L469.922 754.476L470.48 758.105L463.328 759.204L466.32 778.668L462.121 779.313L459.129 759.85L451.977 760.949L451.419 757.32Z" fill="black"/>
<path d="M481.951 752.062L484.11 761.576L494.045 759.322L491.886 749.808L496.029 748.867L501.199 771.652L497.057 772.592L494.866 762.938L484.93 765.192L487.121 774.847L482.979 775.787L477.808 753.002L481.951 752.062Z" fill="black"/>
<path d="M525.245 740.124L530.277 738.37L545.207 757.909L540.957 759.39L537.769 755.164L529.576 758.019L529.671 763.323L525.422 764.804L525.245 740.124ZM529.541 754.638L535.729 752.482L529.364 744.064L529.541 754.638Z" fill="black"/>
<path d="M558.315 727.151L571.636 720.88L573.2 724.202L563.722 728.664L566.344 734.234L575.008 730.155L576.557 733.445L567.893 737.524L572.109 746.481L568.266 748.29L558.315 727.151Z" fill="black"/>
<path d="M598.241 714.636C599.046 716.083 599.326 717.548 599.081 719.031C598.835 720.514 598.058 721.88 596.749 723.131L606.845 728.387L602.002 731.084L593.073 725.631L590.242 727.208L594.673 735.165L590.962 737.232L579.595 716.819L587.144 712.616C589.555 711.273 591.753 710.805 593.737 711.211C595.677 711.586 597.178 712.728 598.241 714.636ZM592.35 722.779C593.713 722.02 594.571 721.144 594.924 720.15C595.266 719.136 595.157 718.126 594.596 717.119C594.024 716.092 593.254 715.449 592.287 715.191C591.307 714.912 590.188 715.123 588.93 715.824L585.093 717.96L588.859 724.723L592.35 722.779Z" fill="black"/>
<path d="M610.7 697.788C612.002 696.93 613.34 696.365 614.713 696.093C616.072 695.801 617.42 695.819 618.756 696.146C621.562 696.827 624.047 698.811 626.212 702.098C628.39 705.405 629.252 708.502 628.796 711.388C628.342 714.101 626.762 716.349 624.056 718.131C621.37 719.901 618.678 720.438 615.979 719.744C613.161 719.043 610.669 717.049 608.504 713.762C606.313 710.435 605.458 707.348 605.939 704.502C606.387 701.821 607.974 699.584 610.7 697.788ZM622.584 704.574C621.105 702.329 619.499 700.916 617.765 700.334C616.037 699.718 614.382 699.932 612.799 700.975C611.215 702.018 610.355 703.461 610.218 705.304C610.069 707.127 610.733 709.161 612.212 711.406C613.677 713.631 615.277 715.034 617.011 715.616C618.732 716.178 620.384 715.938 621.967 714.895C623.551 713.852 624.414 712.436 624.557 710.646C624.707 708.823 624.049 706.799 622.584 704.574Z" fill="black"/>
<path d="M630.664 684.332L648.947 691.114L638.802 678.025L642.16 675.422L656.473 693.889L653.058 696.536L634.167 689.497L644.664 703.041L641.307 705.644L626.994 687.177L630.664 684.332Z" fill="black"/>
<path d="M647.824 670.718L661.774 658.235L664.223 660.971L658.83 665.796L671.962 680.471L668.796 683.304L655.665 668.629L650.273 673.454L647.824 670.718Z" fill="black"/>
<path d="M677.583 642.453L687.701 631.315L690.419 633.784L683.157 641.778L687.714 645.917L694.516 638.43L697.234 640.899L690.432 648.386L694.988 652.526L702.25 644.532L704.995 647.025L694.877 658.163L677.583 642.453Z" fill="black"/>
<path d="M697.387 619.708L716.773 621.812L703.735 611.602L706.354 608.257L724.749 622.662L722.085 626.063L702.046 623.86L715.538 634.425L712.918 637.769L694.523 623.364L697.387 619.708Z" fill="black"/>
<path d="M716.609 593.553C718.578 590.596 721.046 588.794 724.015 588.147C726.996 587.479 729.975 588.137 732.952 590.119C735.909 592.087 737.654 594.576 738.188 597.584C738.736 600.573 738.025 603.545 736.057 606.502L731.847 612.824L712.399 599.875L716.609 593.553ZM731.015 607.123L732.85 604.367C734.074 602.529 734.446 600.628 733.965 598.665C733.485 596.788 732.296 595.218 730.398 593.954C728.46 592.664 726.533 592.159 724.616 592.44C722.653 592.747 721.052 593.83 719.815 595.687L717.98 598.444L731.015 607.123Z" fill="black"/>
<path d="M734.957 563.381L741.76 550.322L745.016 552.019L740.176 561.31L745.636 564.154L750.06 555.661L753.285 557.341L748.86 565.834L757.64 570.408L755.678 574.175L734.957 563.381Z" fill="black"/>
<path d="M748.786 533.893C749.409 532.463 750.222 531.259 751.223 530.282C752.203 529.295 753.342 528.574 754.64 528.119C757.362 527.158 760.528 527.464 764.136 529.037C767.766 530.619 770.178 532.743 771.372 535.41C772.473 537.932 772.376 540.677 771.081 543.648C769.797 546.596 767.834 548.516 765.194 549.408C762.45 550.358 759.274 550.048 755.665 548.475C752.013 546.884 749.612 544.764 748.462 542.116C747.374 539.627 747.482 536.885 748.786 533.893ZM762.447 533.092C759.983 532.018 757.866 531.711 756.095 532.169C754.312 532.597 753.042 533.679 752.284 535.418C751.527 537.156 751.594 538.834 752.485 540.453C753.355 542.062 755.022 543.404 757.486 544.478C759.928 545.542 762.035 545.845 763.805 545.386C765.554 544.917 766.807 543.814 767.565 542.076C768.322 540.338 768.272 538.68 767.415 537.102C766.545 535.493 764.89 534.156 762.447 533.092Z" fill="black"/>
<path d="M759.001 507.89C759.479 506.531 760.062 505.413 760.752 504.536C761.419 503.651 762.174 502.95 763.017 502.432C764.673 501.411 766.618 501.051 768.853 501.353L768.13 505.907C766.848 505.864 765.721 506.104 764.749 506.627C763.762 507.12 763.069 507.932 762.671 509.064C762.131 510.604 762.338 512.076 763.295 513.481C764.341 514.993 766.109 516.186 768.6 517.061C771.068 517.928 773.163 518.155 774.885 517.743C776.585 517.322 777.709 516.331 778.258 514.768C778.807 513.206 778.847 511.897 778.378 510.842C777.886 509.779 777.041 509.037 775.841 508.616L777.356 504.302C779.824 505.169 781.459 506.634 782.261 508.696C783.048 510.728 782.96 513.113 781.998 515.853C780.972 518.774 779.137 520.737 776.495 521.742C773.799 522.754 770.663 522.632 767.085 521.375C763.462 520.102 760.946 518.213 759.536 515.709C758.193 513.304 758.015 510.697 759.001 507.89Z" fill="black"/>
<path d="M766.162 487.04L780.199 490.845C782.052 491.347 783.51 491.245 784.572 490.538C785.64 489.808 786.375 488.702 786.777 487.219C787.179 485.737 787.1 484.422 786.54 483.276C785.987 482.107 784.784 481.271 782.93 480.768L768.893 476.963L770.004 472.863L784.042 476.668C786.914 477.447 788.921 478.849 790.063 480.874C791.182 482.893 791.349 485.35 790.564 488.246C789.779 491.141 788.394 493.178 786.409 494.356C784.401 495.527 781.96 495.723 779.088 494.945L765.05 491.14L766.162 487.04Z" fill="black"/>
<path d="M780.881 452.303C778.805 452.291 777.529 453.511 777.054 455.961C776.821 457.163 776.886 458.153 777.248 458.932C777.591 459.683 778.105 460.125 778.788 460.258C779.471 460.39 780.054 460.283 780.537 459.937C781.001 459.562 781.487 458.948 781.995 458.093L784.905 453.487C785.894 451.918 786.984 450.773 788.175 450.05C789.343 449.323 790.681 449.106 792.189 449.399C794.262 449.801 795.76 450.898 796.684 452.691C797.584 454.479 797.755 456.81 797.198 459.685C796.704 462.229 795.68 464.17 794.125 465.506C792.416 467.008 790.303 467.564 787.788 467.174L788.59 463.039C790.475 463.405 791.854 462.657 792.728 460.798C793.007 460.241 793.24 459.479 793.428 458.513C793.615 457.547 793.553 456.606 793.242 455.69C792.907 454.77 792.339 454.232 791.538 454.076C790.713 453.916 790.046 454.019 789.535 454.385C789 454.745 788.446 455.396 787.873 456.336L785.186 460.545C784.16 462.18 783.096 463.379 781.995 464.143C780.893 464.908 779.529 465.132 777.904 464.817C775.995 464.447 774.631 463.412 773.812 461.713C772.95 459.981 772.768 457.831 773.266 455.263C773.769 452.671 774.755 450.797 776.227 449.64C777.679 448.455 779.498 447.964 781.683 448.168L780.881 452.303Z" fill="black"/>
<path d="M785.64 345.347C783.656 345.709 782.165 345.492 781.167 344.699C780.141 343.885 779.5 342.782 779.247 341.389C779.083 340.492 779.121 339.631 779.362 338.807C779.578 337.987 780.047 337.279 780.768 336.684C781.489 336.089 782.511 335.672 783.833 335.431C785.793 335.074 787.286 335.302 788.312 336.115C789.338 336.928 789.976 338.019 790.226 339.389C790.48 340.782 790.27 342.04 789.596 343.163C788.918 344.262 787.599 344.99 785.64 345.347Z" fill="black"/>
<path d="M768.528 314.155L764.551 299.979L768.086 298.987L770.916 309.073L776.843 307.41L774.257 298.19L777.758 297.208L780.344 306.428L789.876 303.754L791.024 307.844L768.528 314.155Z" fill="black"/>
<path d="M760.577 287.815L774.274 282.925C776.082 282.28 777.221 281.364 777.689 280.177C778.149 278.968 778.121 277.64 777.605 276.194C777.089 274.747 776.273 273.713 775.16 273.091C774.038 272.447 772.573 272.447 770.764 273.093L757.067 277.982L755.639 273.982L769.336 269.092C772.139 268.092 774.587 268.097 776.681 269.108C778.752 270.127 780.292 272.049 781.301 274.875C782.309 277.7 782.335 280.163 781.377 282.263C780.397 284.371 778.505 285.926 775.702 286.926L762.005 291.815L760.577 287.815Z" fill="black"/>
<path d="M768.145 252.902L764.317 244.085L767.718 242.609L773.238 255.322L751.808 264.628L750.116 260.731L768.145 252.902Z" fill="black"/>
<path d="M758.454 232.054L754.121 223.474L757.43 221.802L763.679 234.174L742.823 244.707L740.908 240.915L758.454 232.054Z" fill="black"/>
<path d="M724.407 199.308C722.896 200.732 722.814 202.495 724.161 204.596C724.821 205.627 725.551 206.299 726.351 206.613C727.118 206.92 727.794 206.886 728.38 206.511C728.966 206.135 729.314 205.655 729.425 205.072C729.502 204.48 729.43 203.7 729.208 202.731L728.137 197.389C727.77 195.571 727.769 193.99 728.133 192.645C728.477 191.313 729.296 190.233 730.589 189.404C732.367 188.265 734.209 188.026 736.114 188.686C738 189.36 739.732 190.929 741.311 193.395C742.71 195.577 743.307 197.688 743.103 199.728C742.902 201.995 741.757 203.855 739.666 205.308L737.394 201.762C739.011 200.726 739.494 199.233 738.844 197.284C738.662 196.688 738.305 195.976 737.774 195.148C737.244 194.319 736.549 193.681 735.692 193.232C734.815 192.797 734.032 192.799 733.345 193.239C732.638 193.693 732.225 194.228 732.108 194.845C731.97 195.475 732.017 196.328 732.251 197.404L733.21 202.304C733.595 204.196 733.652 205.798 733.382 207.111C733.112 208.424 732.28 209.528 730.885 210.421C729.248 211.47 727.547 211.662 725.782 210.997C723.963 210.338 722.348 208.907 720.937 206.705C719.513 204.482 718.934 202.444 719.201 200.591C719.434 198.731 720.412 197.121 722.135 195.761L724.407 199.308Z" fill="black"/>
<path d="M712.741 193.392L701.612 178.339L704.565 176.156L708.867 181.975L724.701 170.269L727.227 173.684L711.392 185.391L715.693 191.209L712.741 193.392Z" fill="black"/>
<path d="M693.071 167.891L689.625 163.828L702.483 142.867L705.394 146.299L702.598 150.795L708.21 157.411L713.125 155.414L716.035 158.846L693.071 167.891ZM705.068 158.66L700.83 153.663L695.266 162.631L705.068 158.66Z" fill="black"/>
<path d="M672.881 146.285C671.874 145.255 671.131 144.237 670.65 143.23C670.152 142.24 669.858 141.253 669.767 140.267C669.586 138.33 670.125 136.427 671.385 134.558L675.148 137.223C674.541 138.353 674.257 139.47 674.295 140.573C674.3 141.677 674.721 142.657 675.56 143.515C676.701 144.682 678.113 145.148 679.796 144.913C681.615 144.645 683.468 143.588 685.356 141.743C687.227 139.914 688.358 138.137 688.751 136.41C689.127 134.7 688.736 133.253 687.579 132.069C686.421 130.885 685.266 130.269 684.112 130.222C682.942 130.192 681.901 130.621 680.992 131.51L677.796 128.241C679.667 126.412 681.704 125.595 683.908 125.79C686.078 125.985 688.178 127.12 690.208 129.197C692.372 131.411 693.32 133.925 693.05 136.739C692.763 139.604 691.263 142.362 688.552 145.012C685.806 147.697 682.998 149.116 680.128 149.27C677.377 149.408 674.961 148.413 672.881 146.285Z" fill="black"/>
<path d="M657.042 130.355L663.415 123.16L650.143 124.244L645.778 120.377L660.455 119.335L660.758 102.434L664.881 106.086L664.541 119.011L667.259 118.821L672.534 112.866L675.741 115.706L660.249 133.195L657.042 130.355Z" fill="black"/>
<path d="M627.973 106.487L615.981 97.9436L618.112 94.9529L626.644 101.031L630.216 96.0177L622.417 90.4614L624.526 87.5L632.326 93.0563L638.07 84.9932L641.53 87.458L627.973 106.487Z" fill="black"/>
<path d="M615.201 74.0401L607.049 68.9466L609.014 65.802L620.768 73.1466L608.387 92.9605L604.785 90.7094L615.201 74.0401Z" fill="black"/>
<path d="M589.829 81.6761L576.591 74.5217L578.337 71.2913L587.838 76.426L590.765 71.0103L581.865 66.2007L583.611 62.9703L592.51 67.7798L595.437 62.3641L585.936 57.2294L587.699 53.9673L600.937 61.1216L589.829 81.6761Z" fill="black"/>
<path d="M560.252 66.6673C557.014 65.2073 554.833 63.0657 553.71 60.2427C552.566 57.4098 552.728 54.3633 554.198 51.1034C555.658 47.8653 557.829 45.7374 560.71 44.7197C563.569 43.6921 566.617 43.9083 569.855 45.3683L576.78 48.4906L567.176 69.7896L560.252 66.6673ZM571.291 50.2413L568.272 48.8799C566.259 47.9723 564.323 47.9156 562.465 48.7097C560.691 49.4898 559.336 50.919 558.399 52.9975C557.442 55.1197 557.258 57.1036 557.848 58.949C558.471 60.8361 559.8 62.2383 561.835 63.1558L564.854 64.5171L571.291 50.2413Z" fill="black"/>
<path d="M534.233 35.0467C536.138 32.7506 538.433 32.0895 541.118 33.0634C543.871 34.0618 545.762 35.922 546.791 38.6442C547.864 41.4586 547.795 44.5354 546.583 47.8745C545.307 51.3942 543.291 53.8543 540.536 55.255C537.874 56.6125 535.031 56.7429 532.008 55.6464C529.955 54.9017 528.404 53.8285 527.355 52.4268C526.275 51.0395 525.688 49.2438 525.594 47.0396L530.033 47.5773C530.533 49.9288 531.697 51.436 533.524 52.0988C535.194 52.7044 536.839 52.497 538.46 51.4766C540.135 50.45 541.41 48.7297 542.285 46.3156C543.112 44.0368 543.264 41.9986 542.742 40.2007C542.234 38.4337 541.134 37.2432 539.442 36.6295C537.998 36.1057 536.646 36.1386 535.385 36.7281C534.094 37.332 533.149 38.4574 532.552 40.1045L532.503 40.2398L537.407 42.1335L536.474 44.7056L527.709 41.5263L531.809 30.2229L535.058 31.4013L534.233 35.0467Z" fill="black"/>
<path d="M515.26 29.006L506.025 26.3391L507.054 22.7767L520.37 26.6222L513.887 49.0689L509.806 47.8903L515.26 29.006Z" fill="black"/>
<path d="M492.632 43.2944L488.497 42.3178L493.869 19.5796L498.003 20.5562L492.632 43.2944Z" fill="black"/>
<path d="M473.672 39.186L466.375 21.1029L463.529 37.4166L459.344 36.6865L463.359 13.6701L467.615 14.4126L475.132 33.1188L478.077 16.2377L482.262 16.9678L478.246 39.9842L473.672 39.186Z" fill="black"/>
<path d="M436.683 14.3736C437.955 11.6749 440.012 10.4622 442.855 10.7354C445.77 11.0155 448.065 12.3452 449.741 14.7245C451.482 17.1823 452.183 20.1791 451.843 23.7148C451.485 27.4416 450.147 30.3268 447.828 32.3704C445.589 34.3492 442.868 35.1848 439.667 34.8772C437.493 34.6682 435.723 34.0159 434.358 32.9203C432.966 31.8462 431.95 30.2537 431.309 28.1427L435.742 27.556C436.813 29.7083 438.316 30.8775 440.251 31.0635C442.018 31.2334 443.56 30.6221 444.875 29.2295C446.241 27.8176 447.046 25.8336 447.292 23.2774C447.524 20.8645 447.163 18.8527 446.208 17.242C445.276 15.6575 443.913 14.7792 442.122 14.607C440.593 14.46 439.291 14.8292 438.218 15.7146C437.118 16.6215 436.484 17.947 436.317 19.691L436.303 19.8343L441.524 20.4446L441.263 23.1681L431.981 22.2761L433.132 10.3072L436.572 10.6379L436.683 14.3736Z" fill="black"/>
<path d="M404.526 32.5148L398.844 14.9307L394.332 31.2746L391.453 31.3617L385.671 15.2573L380.741 33.2347L375.955 33.3795L383.273 9.78336L387.735 9.64831L392.523 22.6854L396.479 9.38366L400.941 9.24861L409.276 32.371L404.526 32.5148Z" fill="black"/>
<path d="M368.103 34.4045L363.876 34.8322L361.524 11.5869L365.75 11.1592L368.103 34.4045Z" fill="black"/>
<path d="M356.312 35.5955L337.809 38.4401L337.251 34.8108L344.403 33.7112L341.411 14.2479L345.609 13.6024L348.602 33.0657L355.754 31.9662L356.312 35.5955Z" fill="black"/>
<path d="M325.78 40.8536L323.621 31.3395L313.686 33.5941L315.845 43.1082L311.702 44.0483L306.532 21.2636L310.674 20.3235L312.865 29.978L322.801 27.7234L320.61 18.0689L324.752 17.1288L329.923 39.9135L325.78 40.8536Z" fill="black"/>
<path d="M282.486 52.7922L277.454 54.5456L262.524 35.0067L266.774 33.5257L269.962 37.7518L278.155 34.8966L278.06 29.5923L282.309 28.1114L282.486 52.7922ZM278.189 38.2775L272.002 40.4338L278.367 48.852L278.189 38.2775Z" fill="black"/>
<path d="M249.416 65.7643L236.095 72.0357L234.531 68.7134L244.009 64.2514L241.387 58.6817L232.723 62.7604L231.174 59.4707L239.838 55.392L235.622 46.4349L239.465 44.6256L249.416 65.7643Z" fill="black"/>
<path d="M209.49 78.2793C208.685 76.8325 208.405 75.3676 208.65 73.8848C208.896 72.402 209.673 71.0352 210.982 69.7845L200.886 64.5284L205.729 61.8313L214.658 67.2844L217.489 65.7081L213.058 57.7506L216.769 55.684L228.136 76.0968L220.587 80.3001C218.176 81.6428 215.978 82.1111 213.994 81.7051C212.054 81.3294 210.553 80.1874 209.49 78.2793ZM215.381 70.1369C214.018 70.8958 213.16 71.772 212.807 72.7654C212.465 73.7797 212.574 74.7901 213.135 75.7966C213.707 76.8241 214.477 77.4667 215.444 77.7245C216.424 78.0033 217.542 77.7924 218.801 77.0919L222.638 74.9552L218.872 68.1929L215.381 70.1369Z" fill="black"/>
<path d="M197.031 95.1275C195.728 95.9856 194.391 96.5506 193.018 96.8226C191.658 97.1146 190.31 97.0971 188.974 96.7702C186.169 96.089 183.684 94.1048 181.519 90.8178C179.341 87.5108 178.479 84.414 178.934 81.5276C179.389 78.8143 180.969 76.5665 183.675 74.7843C186.36 73.0152 189.053 72.4777 191.751 73.1717C194.57 73.8729 197.062 75.8671 199.227 79.1541C201.418 82.4812 202.273 85.5679 201.791 88.4142C201.344 91.0943 199.757 93.3321 197.031 95.1275ZM185.147 88.3418C186.626 90.5866 188.232 92 189.966 92.5821C191.693 93.1974 193.349 92.9836 194.932 91.9407C196.515 90.8977 197.376 89.4547 197.512 87.6116C197.662 85.7886 196.998 83.7547 195.519 81.5099C194.054 79.2851 192.454 77.8817 190.72 77.2996C188.999 76.7376 187.347 76.978 185.763 78.021C184.18 79.0639 183.317 80.4803 183.174 82.2701C183.024 84.0931 183.682 86.117 185.147 88.3418Z" fill="black"/>
<path d="M177.067 108.584L158.784 101.802L168.929 114.891L165.571 117.493L151.258 99.0267L154.673 96.3802L173.564 103.418L163.067 89.8744L166.424 87.272L180.737 105.739L177.067 108.584Z" fill="black"/>
<path d="M159.907 122.198L145.957 134.681L143.508 131.945L148.901 127.119L135.769 112.445L138.935 109.612L152.066 124.287L157.458 119.461L159.907 122.198Z" fill="black"/>
<path d="M130.148 150.463L120.029 161.601L117.312 159.132L124.574 151.138L120.017 146.998L113.215 154.486L110.497 152.017L117.299 144.529L112.743 140.39L105.481 148.384L102.736 145.891L112.854 134.752L130.148 150.463Z" fill="black"/>
<path d="M110.344 173.208L90.9583 171.104L103.996 181.314L101.377 184.659L82.9823 170.254L85.6458 166.853L105.685 169.056L92.1935 158.491L94.8125 155.147L113.208 169.551L110.344 173.208Z" fill="black"/>
<path d="M91.1218 199.363C89.1532 202.32 86.6847 204.122 83.7163 204.769C80.7346 205.436 77.7555 204.779 74.7789 202.797C71.8224 200.828 70.077 198.34 69.5428 195.332C68.9953 192.343 69.7058 189.371 71.6744 186.414L75.8844 180.091L95.3317 193.04L91.1218 199.363ZM76.7163 185.792L74.8807 188.549C73.657 190.387 73.2853 192.287 73.7657 194.251C74.246 196.128 75.435 197.698 77.3328 198.962C79.2706 200.252 81.1979 200.757 83.1148 200.476C85.0782 200.169 86.6785 199.086 87.9155 197.228L89.7511 194.471L76.7163 185.792Z" fill="black"/>
<path d="M72.7737 229.535L65.9709 242.593L62.7143 240.897L67.5545 231.606L62.0949 228.762L57.6706 237.255L54.4459 235.575L58.8703 227.082L50.0903 222.508L52.053 218.74L72.7737 229.535Z" fill="black"/>
<path d="M58.9448 259.022C58.3217 260.453 57.5092 261.656 56.5074 262.633C55.5277 263.62 54.3888 264.341 53.0908 264.797C50.3685 265.757 47.2032 265.451 43.5949 263.879C39.9646 262.297 37.5524 260.173 36.3584 257.506C35.258 254.984 35.355 252.238 36.6493 249.268C37.9339 246.32 39.8963 244.4 42.5363 243.508C45.2806 242.557 48.4569 242.868 52.0652 244.44C55.7175 246.032 58.1187 248.151 59.2687 250.799C60.3567 253.289 60.2487 256.03 58.9448 259.022ZM45.2833 259.824C47.7476 260.898 49.865 261.205 51.6357 260.746C53.4189 260.319 54.6891 259.236 55.4465 257.498C56.2039 255.76 56.1369 254.081 55.2453 252.463C54.3758 250.853 52.709 249.512 50.2447 248.438C47.8025 247.374 45.6961 247.071 43.9253 247.53C42.1766 247.998 40.9236 249.102 40.1662 250.84C39.4088 252.578 39.4586 254.236 40.3157 255.814C41.1853 257.423 42.8411 258.76 45.2833 259.824Z" fill="black"/>
<path d="M48.7296 285.026C48.2523 286.385 47.6689 287.503 46.9792 288.38C46.3122 289.265 45.5571 289.966 44.7138 290.484C43.0579 291.505 41.1128 291.864 38.8784 291.563L39.6006 287.009C40.8827 287.052 42.0099 286.812 42.9823 286.289C43.9694 285.796 44.6618 284.984 45.0595 283.851C45.6004 282.312 45.3925 280.84 44.4359 279.435C43.39 277.923 41.6216 276.73 39.1308 275.855C36.6627 274.988 34.5676 274.76 32.8455 275.173C31.1461 275.593 30.0219 276.585 29.4731 278.147C28.9242 279.71 28.8842 281.018 29.3531 282.073C29.8446 283.136 30.6903 283.879 31.8905 284.3L30.3752 288.614C27.907 287.747 26.272 286.282 25.4702 284.22C24.6831 282.188 24.7708 279.802 25.7332 277.063C26.7593 274.141 28.5936 272.178 31.2361 271.173C33.9317 270.162 37.0684 270.284 40.6461 271.541C44.2691 272.814 46.7853 274.702 48.1948 277.207C49.5377 279.612 49.7159 282.218 48.7296 285.026Z" fill="black"/>
<path d="M41.5693 305.876L27.5318 302.071C25.6787 301.569 24.2211 301.671 23.1592 302.378C22.0911 303.108 21.3561 304.214 20.9542 305.696C20.5524 307.179 20.6313 308.493 21.1909 309.64C21.7442 310.809 22.9474 311.645 24.8005 312.147L38.838 315.952L37.7267 320.052L23.6892 316.247C20.8168 315.469 18.8097 314.067 17.6678 312.042C16.549 310.023 16.382 307.565 17.1669 304.67C17.9517 301.774 19.3368 299.738 21.322 298.56C23.3304 297.389 25.7708 297.192 28.6431 297.971L42.6806 301.776L41.5693 305.876Z" fill="black"/>
<path d="M26.8501 340.613C28.9259 340.624 30.2015 339.405 30.6767 336.955C30.9098 335.753 30.8452 334.763 30.4829 333.983C30.1396 333.232 29.6264 332.79 28.9431 332.658C28.2598 332.525 27.6768 332.632 27.194 332.979C26.7302 333.353 26.2443 333.968 25.7362 334.823L22.8259 339.429C21.8372 340.997 20.7472 342.143 19.5559 342.865C18.3881 343.592 17.0502 343.809 15.5423 343.517C13.469 343.115 11.9705 342.017 11.0469 340.225C10.1469 338.437 9.97567 336.106 10.5332 333.231C11.0267 330.686 12.0509 328.746 13.6058 327.41C15.3151 325.908 17.4276 325.352 19.9433 325.742L19.1413 329.877C17.2565 329.511 15.877 330.258 15.0029 332.118C14.7238 332.675 14.4905 333.436 14.3031 334.402C14.1158 335.368 14.1777 336.309 14.489 337.225C14.8239 338.146 15.3918 338.684 16.1929 338.839C17.0175 338.999 17.6853 338.897 18.1962 338.531C18.7307 338.17 19.2847 337.52 19.8581 336.58L22.5448 332.37C23.5708 330.736 24.6346 329.536 25.7363 328.772C26.8379 328.008 28.2016 327.784 29.8273 328.099C31.7358 328.469 33.0997 329.504 33.9192 331.203C34.7812 332.935 34.9632 335.085 34.4651 337.653C33.9624 340.244 32.9755 342.119 31.5043 343.276C30.052 344.461 28.2333 344.952 26.0482 344.748L26.8501 340.613Z" fill="black"/>
</svg>
