<svg width="574" height="374" viewBox="0 0 574 374" fill="none" xmlns="http://www.w3.org/2000/svg">
<rect x="6" y="6" width="562" height="362" rx="34" fill="#FF0000" stroke="white" stroke-width="12"/>
<path d="M193.469 85H182.395V33.8125H193.469V54.3789H213.367V33.8125H224.406V85H213.367V63.2734H193.469V85ZM267.789 85H233.23V33.8125H267.754V42.7422H244.305V54.3789H264.273V62.9922H244.305V76.1055H267.789V85ZM306.953 85H273.73V33.8125H284.77V76.1055H306.953V85ZM346.047 85H312.824V33.8125H323.863V76.1055H346.047V85ZM391.855 60.4609C391.855 65.6875 390.93 70.1875 389.078 73.9609C387.227 77.7344 384.648 80.6406 381.344 82.6797C378.062 84.6953 374.277 85.7031 369.988 85.7031C365.676 85.7031 361.855 84.6953 358.527 82.6797C355.223 80.6406 352.633 77.7344 350.758 73.9609C348.883 70.1875 347.945 65.6875 347.945 60.4609V58.3867C347.945 53.1602 348.871 48.6602 350.723 44.8867C352.598 41.0898 355.188 38.1836 358.492 36.168C361.797 34.1289 365.605 33.1094 369.918 33.1094C374.207 33.1094 378.004 34.1289 381.309 36.168C384.613 38.1836 387.191 41.0898 389.043 44.8867C390.918 48.6602 391.855 53.1602 391.855 58.3867V60.4609ZM380.711 58.3164C380.711 53.043 379.762 49.0469 377.863 46.3281C375.988 43.5859 373.34 42.2148 369.918 42.2148C366.449 42.2148 363.789 43.5859 361.938 46.3281C360.086 49.0469 359.16 53.043 359.16 58.3164V60.4609C359.16 65.6875 360.098 69.6953 361.973 72.4844C363.848 75.25 366.52 76.6328 369.988 76.6328C373.41 76.6328 376.047 75.25 377.898 72.4844C379.773 69.6953 380.711 65.6875 380.711 60.4609V58.3164Z" fill="white"/>
<path d="M224.281 104.938L228.512 117.113L232.73 104.938H237.547V122H233.855V117.582L234.219 109.484L229.754 122H227.246L222.793 109.484L223.156 117.582V122H219.465V104.938H224.281ZM246.488 112.508L249.922 104.938H253.93L248.363 115.824V122H244.625V115.824L239.047 104.938H243.066L246.488 112.508ZM275.375 122H271.695L265.074 111.02V122H261.395V104.938H265.074L271.707 115.93V104.938H275.375V122ZM280.859 122H276.934L283.273 104.938H286.684L293.059 122H289.133L288.02 118.602H281.973L280.859 122ZM282.945 115.625H287.035L284.984 109.426L282.945 115.625ZM299.398 104.938L303.629 117.113L307.848 104.938H312.664V122H308.973V117.582L309.336 109.484L304.871 122H302.363L297.91 109.484L298.273 117.582V122H294.582V104.938H299.398ZM327.148 122H315.629V104.938H327.137V107.914H319.32V111.793H325.977V114.664H319.32V119.035H327.148V122ZM339.02 122H335.34V104.938H339.02V122ZM351.008 117.5C351.008 117.117 350.926 116.785 350.762 116.504C350.598 116.223 350.281 115.957 349.812 115.707C349.352 115.449 348.668 115.176 347.762 114.887C346.73 114.559 345.781 114.168 344.914 113.715C344.047 113.254 343.348 112.684 342.816 112.004C342.293 111.324 342.031 110.484 342.031 109.484C342.031 108.523 342.305 107.688 342.852 106.977C343.398 106.258 344.148 105.699 345.102 105.301C346.062 104.902 347.16 104.703 348.395 104.703C349.66 104.703 350.766 104.926 351.711 105.371C352.656 105.816 353.387 106.438 353.902 107.234C354.426 108.023 354.688 108.938 354.688 109.977H351.02C351.02 109.289 350.801 108.727 350.363 108.289C349.926 107.844 349.25 107.621 348.336 107.621C347.453 107.621 346.793 107.805 346.355 108.172C345.926 108.539 345.711 108.984 345.711 109.508C345.711 110.055 345.996 110.508 346.566 110.867C347.145 111.227 347.961 111.57 349.016 111.898C350.875 112.469 352.285 113.188 353.246 114.055C354.207 114.922 354.688 116.062 354.688 117.477C354.688 118.984 354.125 120.156 353 120.992C351.875 121.82 350.367 122.234 348.477 122.234C347.617 122.234 346.773 122.125 345.945 121.906C345.125 121.68 344.379 121.336 343.707 120.875C343.043 120.406 342.512 119.816 342.113 119.105C341.715 118.395 341.516 117.551 341.516 116.574H345.207C345.207 117.582 345.5 118.293 346.086 118.707C346.68 119.121 347.477 119.328 348.477 119.328C349.344 119.328 349.98 119.152 350.387 118.801C350.801 118.449 351.008 118.016 351.008 117.5Z" fill="white"/>
<rect x="12" y="156" width="550" height="150" fill="white"/>
<path d="M41.4948 261.092L40.9903 260.662C40.6719 262.568 40.5482 264.459 40.6192 266.334C40.6902 268.209 40.7643 270.123 40.8416 272.077C40.8912 272.7 40.936 273.754 40.976 275.24C41.0939 276.72 41.1821 278.319 41.2407 280.039C41.2931 281.68 41.3424 283.283 41.3886 284.847C41.5065 286.327 41.5871 287.339 41.6305 287.884C41.4713 288.837 41.0303 289.695 40.3073 290.458C39.5844 291.221 38.7167 291.643 37.7043 291.724C37.3149 291.755 36.8056 291.756 36.1763 291.728C35.6188 291.616 35.0223 291.506 34.3869 291.4C33.8231 291.21 33.2562 290.981 32.6863 290.713C32.1942 290.438 31.8937 290.11 31.7848 289.726L22.3688 264.496L15.3109 243.78C15.2268 243.709 15.0493 243.448 14.7785 243C14.5076 242.551 14.2337 242.063 13.9566 241.537C13.6733 240.932 13.3932 240.367 13.1161 239.84C12.9169 239.308 12.8049 238.886 12.7801 238.574C12.6933 237.484 13.1312 236.587 14.094 235.883C15.1285 235.095 16.074 234.667 16.9307 234.599C19.8122 234.37 21.7385 235.431 22.7096 237.783L30.9864 260.518C31.3633 260.331 31.5629 259.884 31.5849 259.177C31.6848 258.464 31.7286 258.029 31.7162 257.874C31.71 257.796 31.7179 257.403 31.7399 256.696C31.8399 255.983 31.9773 254.757 32.1524 253.019C32.3212 251.203 32.5572 248.755 32.8604 245.674C33.2415 242.587 33.749 238.628 34.383 233.797C34.944 232.968 35.6435 232.403 36.4816 232.101C37.3134 231.722 38.2745 231.488 39.3648 231.401C40.3772 231.321 41.1684 231.414 41.7384 231.683C42.3862 231.944 42.8704 232.611 43.1909 233.683L53.7958 266.46C53.9826 266.837 54.1725 267.253 54.3655 267.708C54.5584 268.163 54.7483 268.578 54.9351 268.955C55.0419 266.361 55.1346 264.08 55.2131 262.115C55.2854 260.071 55.364 258.106 55.4487 256.218C55.5273 254.253 55.5996 252.209 55.6657 250.088C55.7257 247.889 55.8387 245.372 56.0047 242.537C56.1708 239.702 56.3744 236.355 56.6156 232.496C56.8567 228.636 57.1558 224.028 57.5127 218.67C57.6223 217.094 58.2067 216.068 59.266 215.591C60.4031 215.109 61.6726 214.812 63.0744 214.7C63.1523 214.694 63.3143 214.76 63.5603 214.897C63.878 214.95 64.0789 215.012 64.163 215.084C64.325 215.149 64.6427 215.202 65.1162 215.243C65.5896 215.284 65.9074 215.337 66.0693 215.402C66.4367 216.078 66.7589 216.68 67.0359 217.206C67.3068 217.655 67.467 218.191 67.5167 218.814C67.2989 218.047 67.0542 218.419 66.7827 219.93C66.5112 221.441 66.1973 223.895 65.841 227.294C65.5626 230.686 65.2715 234.902 64.9676 239.942C64.7354 244.898 64.556 250.516 64.4292 256.796C64.2963 262.998 64.2457 269.742 64.2775 277.028C64.381 284.23 64.584 291.699 64.8867 299.433C64.653 299.452 64.2606 299.444 63.7092 299.41C63.1578 299.375 62.5645 299.305 61.929 299.199C61.3715 299.086 60.8497 298.932 60.3639 298.736C59.878 298.539 59.5417 298.252 59.3549 297.875L41.4948 261.092ZM69.4497 291.664C69.0775 286.991 69.0199 282.332 69.2769 277.688C69.5339 273.043 69.7131 268.405 69.8143 263.773C69.7957 263.54 69.7943 263.03 69.8102 262.245C69.8198 261.382 69.8263 260.481 69.8298 259.54C69.9111 258.593 69.9597 257.727 69.9755 256.942C70.063 256.073 70.0975 255.522 70.0789 255.288L70.0416 254.821L72.0447 217.983C71.7648 216.438 71.8899 215.056 72.4199 213.838C73.0215 212.536 74.2179 211.814 76.0091 211.671C77.9375 211.283 79.5557 211.428 80.8638 212.108C82.2436 212.703 83.4083 213.551 84.358 214.651C85.3077 215.751 86.111 216.98 86.7678 218.338C87.4246 219.697 88.1111 220.935 88.8272 222.054C89.3034 223.113 89.873 224.361 90.5361 225.797C91.2769 227.227 92.1267 229.04 93.0854 231.237C94.122 233.427 95.3157 236.114 96.6666 239.298C98.0953 242.476 99.7356 246.342 101.588 250.897L102.092 251.327C102.612 250.972 103.584 250.385 105.008 249.566C106.51 248.741 108.048 247.874 109.621 246.965C111.272 246.05 112.81 245.183 114.234 244.364C115.658 243.546 116.672 242.995 117.276 242.711C117.342 242.549 117.527 242.417 117.832 242.314C118.209 242.128 118.473 241.989 118.622 241.899L118.856 241.88C119.635 241.818 120.243 242.083 120.682 242.675C121.115 243.189 121.353 243.719 121.397 244.264C121.465 245.121 121.329 245.876 120.99 246.53C120.65 247.184 120.229 247.805 119.727 248.394C119.297 248.898 118.789 249.409 118.204 249.926C117.696 250.437 117.308 250.977 117.039 251.547L105.94 258.309C105.659 258.723 105.528 259.047 105.547 259.281C105.597 259.904 105.986 260.853 106.714 262.127C107.521 263.395 108.149 264.403 108.601 265.151C108.872 265.599 109.329 266.425 109.974 267.628C110.618 268.83 111.305 270.069 112.033 271.343C112.762 272.617 113.448 273.856 114.092 275.058C114.809 276.177 115.302 276.961 115.573 277.409L115.601 277.76C115.824 280.563 114.534 282.077 111.73 282.3C110.874 282.368 109.972 282.362 109.025 282.281C108.072 282.121 107.324 281.593 106.783 280.696L97.6252 264.614L96.5738 264.698C93.7944 267.192 90.8171 269.663 87.642 272.11C84.467 274.558 81.1892 276.7 77.8088 278.537C77.4869 281.384 77.3629 284.254 77.4367 287.148C77.5884 290.036 77.8568 292.914 78.2421 295.783C77.6873 296.689 77.1171 297.401 76.5312 297.918C75.9392 298.357 75.0981 298.62 74.0078 298.707C72.9175 298.794 72.0812 298.625 71.4988 298.201C70.9102 297.7 70.4712 297.108 70.1817 296.425C69.8861 295.665 69.7041 294.857 69.6359 294C69.5676 293.143 69.5056 292.365 69.4497 291.664ZM78.0412 268.173C80.3031 267.052 82.4624 265.626 84.5189 263.895C86.6533 262.157 88.6802 260.546 90.5995 259.061C90.8208 258.887 91.0809 258.709 91.38 258.529C91.757 258.342 92.092 258.119 92.3849 257.861C92.6778 257.602 93.0454 257.299 93.4879 256.95L93.4134 256.015L80.2282 226.265L79.7237 225.835C79.5273 226.321 79.3212 227.67 79.1056 229.881C78.9677 232.087 78.8048 234.96 78.6167 238.502C78.5003 241.96 78.3494 245.969 78.164 250.529C78.0566 255.083 77.935 259.952 77.7993 265.136L78.0412 268.173ZM119.302 276.877C118.824 270.88 118.427 264.917 118.112 258.985C117.874 253.048 117.513 247.042 117.029 240.968C116.75 237.463 116.276 233.974 115.607 230.501C115.017 227.021 114.582 223.529 114.303 220.024C114.216 218.934 114.453 217.975 115.014 217.146C115.653 216.312 116.517 215.851 117.608 215.764C119.477 215.615 120.91 215.893 121.906 216.597C122.903 217.301 123.642 218.222 124.125 219.359C124.607 220.497 124.907 221.805 125.025 223.285C125.143 224.764 125.258 226.205 125.369 227.607C125.394 227.918 125.456 228.697 125.556 229.943C125.733 231.183 125.919 232.54 126.115 234.013C126.304 235.409 126.449 236.73 126.548 237.976C126.725 239.216 126.826 239.991 126.851 240.303L127.158 244.158C127.561 249.22 127.884 254.249 128.125 259.246C128.366 264.242 128.692 269.311 129.101 274.451L129.492 279.357C129.523 279.746 129.605 280.288 129.739 280.983C129.944 281.594 130.086 281.896 130.164 281.89L131.098 281.815L157.909 268.629C158.489 268.034 159.012 267.718 159.48 267.681C159.941 267.566 160.483 267.484 161.106 267.434C161.495 267.403 162.004 267.402 162.634 267.43C163.257 267.38 163.85 267.45 164.414 267.641C165.049 267.747 165.577 267.979 165.998 268.337C166.49 268.612 166.764 269.099 166.82 269.8C166.962 271.591 166.113 273.227 164.271 274.706C161.885 276.228 159.414 277.679 156.859 279.058C154.298 280.359 151.683 281.469 149.013 282.387L148.466 282.901C144.808 284.211 141.422 285.97 138.306 288.177C135.268 290.378 132.062 292.436 128.688 294.351L127.636 294.435C125.534 294.602 123.92 294.025 122.796 292.704C121.672 291.383 120.88 289.8 120.419 287.956C119.953 286.034 119.678 284.057 119.594 282.026C119.505 279.917 119.407 278.201 119.302 276.877ZM181.035 238.573C180.907 237.956 180.728 237.187 180.498 236.264C180.34 235.258 180.148 234.333 179.924 233.489C179.772 232.56 179.632 231.788 179.505 231.171C179.377 230.554 179.313 230.246 179.313 230.246L178.379 230.32L165.378 235.353C165.038 236.007 164.401 236.371 163.467 236.446C162.61 236.514 161.948 236.567 161.481 236.604C160.39 236.691 159.224 236.313 157.981 235.472C156.81 234.546 156.178 233.499 156.085 232.331C156.017 231.475 156.225 230.635 156.708 229.813C157.262 228.907 157.956 228.264 158.788 227.884L177.121 220.428C177.286 219.553 177.646 218.662 178.201 217.756C178.827 216.765 179.686 216.227 180.776 216.14C181.866 216.053 182.784 216.254 183.528 216.743C184.35 217.227 185.241 217.587 186.2 217.824C186.895 217.69 188.045 217.363 189.649 216.844C191.253 216.324 192.936 215.798 194.696 215.266C196.528 214.65 198.246 214.082 199.85 213.562C201.455 213.043 202.562 212.68 203.173 212.475C204.095 212.244 204.78 211.994 205.229 211.723C205.678 211.452 206.408 211.277 207.421 211.196C208.745 211.09 210.139 211.371 211.602 212.038C213.066 212.705 213.86 213.818 213.984 215.375C214.065 216.388 213.786 217.311 213.147 218.146C212.502 218.903 211.682 219.438 210.689 219.752L188.94 227.128L189.024 228.179C189.216 230.593 189.6 232.953 190.175 235.258C190.829 237.558 191.171 239.881 191.201 242.23L198.048 278.01L198.253 280.58C198.327 281.515 198.366 282.492 198.369 283.51C198.443 284.445 198.356 285.314 198.106 286.117C197.935 286.915 197.559 287.611 196.979 288.206C196.394 288.723 195.478 289.031 194.232 289.13C193.297 289.204 192.254 288.896 191.101 288.204C190.027 287.506 189.407 286.614 189.243 285.53L181.109 239.507L181.035 238.573ZM211.442 285.173C210.415 282.12 209.598 279.246 208.992 276.551C208.379 273.778 207.871 270.841 207.467 267.738C207.246 265.953 207.125 264.434 207.104 263.182C207.076 261.852 206.806 260.424 206.292 258.897C206.19 258.592 205.976 258.374 205.653 258.243C205.407 258.105 205.118 257.933 204.788 257.724C204.536 257.509 204.281 257.255 204.022 256.962C203.758 256.591 203.594 256.016 203.532 255.237C203.483 254.614 203.556 254.06 203.752 253.574C204.027 253.082 204.265 252.632 204.468 252.224C204.742 251.732 204.977 251.243 205.174 250.757C205.442 250.187 205.548 249.552 205.492 248.851L205.353 247.098C205.291 246.32 205.107 245.002 204.803 243.145C204.498 241.289 204.184 239.315 203.861 237.225C203.537 235.134 203.224 233.161 202.919 231.304C202.692 229.441 202.512 228.163 202.378 227.468C202.195 226.15 201.751 225.01 201.048 224.047C200.344 223.084 199.939 221.941 199.834 220.617C199.635 218.125 200.002 216.332 200.934 215.239C201.866 214.146 203.616 213.497 206.186 213.293C206.732 213.249 207.179 213.449 207.527 213.891C207.954 214.327 208.401 214.527 208.868 214.49L209.335 214.453C209.563 214.356 209.907 214.25 210.368 214.135C210.823 213.942 211.128 213.839 211.284 213.827C217.602 210.502 222.53 207.915 226.066 206.066C229.602 204.217 232.277 202.868 234.09 202.018C235.903 201.168 237.118 200.679 237.735 200.552C238.43 200.418 239.02 200.45 239.506 200.646C240.453 200.727 241.101 200.989 241.45 201.432C241.87 201.79 242.114 202.398 242.183 203.254C242.245 204.033 242.19 204.821 242.018 205.618C241.847 206.416 241.348 207.043 240.522 207.501L225.806 216.08L225.376 216.584L212.963 223.098C212.508 223.291 212.267 223.702 212.238 224.331C212.21 224.961 212.211 225.47 212.243 225.859C212.292 226.482 212.46 227.605 212.746 229.228C213.032 230.851 213.324 232.552 213.623 234.331C213.915 236.032 214.195 237.577 214.462 238.967C214.801 240.272 215.01 240.921 215.088 240.915L215.204 240.906C215.204 240.906 215.24 240.864 215.312 240.78C216.119 240.089 217.398 238.929 219.149 237.3C220.894 235.594 222.678 233.884 224.501 232.171C226.324 230.459 227.929 228.959 229.315 227.673C230.696 226.309 231.425 225.624 231.503 225.618C232.36 225.55 233.172 225.916 233.942 226.717C234.711 227.518 235.133 228.386 235.207 229.32C235.281 230.255 235.171 231.322 234.874 232.521C234.578 233.72 234.026 234.665 233.219 235.356L216.289 253.046C216.289 253.046 216.305 253.24 216.336 253.63C216.367 254.019 216.362 254.451 216.321 254.924C216.358 255.391 216.399 255.898 216.442 256.443C216.479 256.91 216.51 257.299 216.535 257.611C216.759 260.414 217.177 263.203 217.789 265.975C218.396 268.67 218.811 271.419 219.034 274.223L219.501 274.185C219.579 274.179 219.905 273.84 220.478 273.167C221.052 272.495 221.479 271.951 221.759 271.537C221.896 271.291 222.206 270.757 222.689 269.935C223.25 269.106 224.16 267.74 225.42 265.838C226.679 263.935 228.359 261.411 230.459 258.265C232.56 255.12 235.26 251.143 238.561 246.334C238.848 245.998 239.239 245.496 239.734 244.83C240.308 244.157 240.672 243.815 240.828 243.802C241.043 243.55 241.504 243.435 242.211 243.457C242.99 243.395 243.541 243.429 243.865 243.56C244.267 243.685 244.807 244.073 245.486 244.724C246.165 245.376 246.529 246.013 246.579 246.636C246.653 247.57 246.246 248.857 245.358 250.495C244.541 252.049 243.536 253.697 242.343 255.438C241.149 257.178 239.952 258.88 238.752 260.543C237.546 262.129 236.63 263.416 236.003 264.407C235.05 266.207 233.893 268.415 232.534 271.031C231.247 273.563 229.797 276.03 228.186 278.431C226.569 280.754 224.735 282.821 222.684 284.63C220.706 286.355 218.509 287.314 216.095 287.506C214.927 287.599 214.055 287.472 213.479 287.126C212.98 286.774 212.301 286.123 211.442 285.173ZM248.982 257.495C248.434 256.52 247.979 255.733 247.618 255.135C247.335 254.53 247.159 253.8 247.091 252.943C247.035 252.242 247.063 251.613 247.175 251.056C247.359 250.414 247.424 249.743 247.368 249.042C247.231 247.328 247.026 245.738 246.753 244.271C246.557 242.797 246.31 241.171 246.011 239.392C245.915 239.165 245.627 238.992 245.147 238.873C244.667 238.755 244.146 238.601 243.582 238.41C243.012 238.142 242.472 237.754 241.961 237.246C241.528 236.732 241.271 235.969 241.191 234.957C241.116 234.022 241.249 233.228 241.589 232.574C242 231.835 242.418 231.175 242.842 230.593C243.259 229.933 243.638 229.275 243.978 228.621C244.389 227.883 244.558 227.047 244.483 226.112C244.452 225.723 244.357 225.025 244.199 224.019C244.034 222.935 243.866 221.812 243.695 220.65C243.602 219.482 243.477 218.395 243.318 217.388C243.231 216.298 243.172 215.558 243.141 215.169L243.123 214.935L243.104 214.702C243.36 213.976 243.547 213.373 243.665 212.893C243.862 212.408 244.067 212.039 244.282 211.786C244.497 211.534 244.797 211.353 245.18 211.245C245.557 211.058 246.057 210.94 246.68 210.89C248.315 210.76 249.547 210.975 250.376 211.536C251.204 212.097 251.808 212.793 252.188 213.625C252.561 214.379 252.815 215.104 252.949 215.798C253.082 216.493 253.308 216.867 253.626 216.92L261.45 208.89L261.918 208.853C264.501 206.845 267.274 205.252 270.237 204.076C273.193 202.822 276.346 202.061 279.695 201.794C280.707 201.714 281.923 201.734 283.344 201.856C284.842 201.972 286.239 202.292 287.535 202.816C288.902 203.255 290.051 203.908 290.982 204.775C291.991 205.635 292.552 206.766 292.663 208.167C292.788 209.725 292.72 211.337 292.461 213.003C292.202 214.67 291.787 216.349 291.216 218.04C290.717 219.647 290.06 221.228 289.243 222.782C288.498 224.252 287.659 225.534 286.728 226.627C286.407 227.514 284.088 229.894 279.773 233.764C275.457 237.635 269.019 243.398 260.46 251.055L316.811 250.093C317.596 250.109 318.654 250.103 319.984 250.076C321.386 249.964 322.719 249.975 323.984 250.11C325.326 250.238 326.493 250.615 327.483 251.242C328.467 251.79 329.012 252.726 329.117 254.05C329.173 254.751 329.103 255.345 328.906 255.831C328.782 256.232 328.576 256.601 328.289 256.938C328.074 257.19 327.781 257.448 327.411 257.713C327.118 257.972 326.831 258.308 326.55 258.722L324.565 258.88L322.579 259.039C321.009 259.007 319.358 258.942 317.626 258.845C315.972 258.742 314.003 258.624 311.72 258.493C309.514 258.355 306.92 258.248 303.935 258.172C300.951 258.097 297.386 258.106 293.24 258.202C289.094 258.297 284.25 258.487 278.708 258.771C273.244 259.05 266.891 259.478 259.648 260.054C259.57 260.061 259.463 260.187 259.326 260.433C259.266 260.673 259.243 260.87 259.255 261.026C259.491 263.986 259.957 266.887 260.654 269.732C261.423 272.492 261.919 275.274 262.142 278.077C262.185 278.623 262.157 279.252 262.057 279.965C262.029 280.594 261.884 281.233 261.622 281.881C261.354 282.451 261.002 282.949 260.565 283.376C260.129 283.802 259.561 284.043 258.86 284.099C258.392 284.136 257.841 284.102 257.206 283.996C256.564 283.812 255.916 283.55 255.262 283.21C254.686 282.864 254.146 282.476 253.641 282.046C253.137 281.616 252.821 281.093 252.693 280.476L248.982 257.495ZM254.752 231.055C254.907 233.002 255.092 234.829 255.306 236.536C255.52 238.243 255.786 240.103 256.103 242.115L256.454 242.087C256.531 242.081 256.72 241.988 257.019 241.807C257.318 241.627 258.06 241.097 259.244 240.219C260.422 239.263 262.227 237.826 264.661 235.908C267.088 233.912 270.511 231.132 274.929 227.567C275.82 226.947 276.758 225.932 277.743 224.521C278.728 223.11 279.626 221.589 280.436 219.957C281.246 218.325 281.904 216.744 282.409 215.215C282.908 213.608 283.118 212.298 283.037 211.285C282.975 210.507 282.554 210.148 281.776 210.21C281.075 210.266 280.452 210.316 279.907 210.359C278.738 210.452 277.43 210.752 275.981 211.26C274.533 211.767 272.804 212.688 270.794 214.024C268.862 215.354 266.542 217.223 263.834 219.633C261.205 222.037 258.127 225.221 254.603 229.186L254.752 231.055ZM375.353 251.308C375.307 249.744 375.144 248.19 374.864 246.644C374.662 245.093 374.421 243.545 374.142 242C374.033 241.616 373.866 241.003 373.642 240.158C373.496 239.308 373.417 238.805 373.405 238.649C373.398 238.571 373.308 238.422 373.134 238.2C372.953 237.901 372.86 237.713 372.853 237.635L373.069 237.383C373.284 237.131 373.352 237.007 373.274 237.014L371.478 214.468L371.011 214.505C370.163 215.67 369.166 216.925 368.019 218.27C366.872 219.616 365.442 220.356 363.729 220.493C362.483 220.592 361.242 220.26 360.005 219.496C358.847 218.727 358.212 217.641 358.1 216.239L358.081 216.005C358.075 215.927 358.105 215.808 358.17 215.646C358.236 215.484 358.301 215.322 358.367 215.16C358.426 214.92 358.488 214.719 358.554 214.557L370.726 202.067L370.214 195.642C370.152 194.863 370.572 194.242 371.476 193.778C372.373 193.236 373.133 192.94 373.756 192.891C374.769 192.81 375.725 193.008 376.625 193.485C377.519 193.884 378.394 194.05 379.251 193.981C380.03 193.919 380.712 193.63 381.298 193.113C381.884 192.596 382.473 192.118 383.065 191.679C385.881 189.652 388.615 188.063 391.267 186.911C393.996 185.753 397.074 185.038 400.5 184.765C401.98 184.647 403.745 184.663 405.794 184.813C407.916 184.88 409.939 185.189 411.864 185.741C413.866 186.286 415.579 187.13 417.003 188.27C418.426 189.411 419.215 190.955 419.37 192.902C419.649 196.406 419.215 199.811 418.068 203.115C416.92 206.42 415.2 209.418 412.906 212.108C409.883 215.484 407.03 218.533 404.348 221.254C401.736 223.892 398.778 226.596 395.472 229.368C395.4 229.452 395.331 229.575 395.266 229.737C395.194 229.821 395.122 229.905 395.051 229.989L384.343 238.718C383.978 239.061 383.83 239.66 383.898 240.517C383.961 241.296 384.001 241.802 384.019 242.036C384.199 244.294 384.496 246.543 384.91 248.783C385.395 250.939 385.883 253.134 386.375 255.367C386.866 257.601 387.318 259.838 387.732 262.078C388.223 264.311 388.559 266.557 388.739 268.816C388.838 270.062 388.617 271.216 388.074 272.278C387.604 273.256 386.628 273.804 385.149 273.922C384.058 274.009 382.856 273.673 381.542 272.916C380.299 272.074 379.554 271.076 379.305 269.92L375.353 251.308ZM382.903 228.018L402.87 210.086C403.749 209.311 404.612 208.341 405.46 207.176C406.379 205.927 407.178 204.649 407.858 203.341C408.609 201.949 409.202 200.53 409.635 199.085C410.069 197.64 410.236 196.294 410.136 195.048C410.074 194.269 409.677 193.713 408.945 193.379C408.285 192.962 407.521 192.709 406.651 192.622C405.776 192.456 404.871 192.411 403.937 192.485C403.08 192.553 402.379 192.609 401.834 192.653C398.329 192.932 395.163 194.007 392.334 195.878C389.576 197.665 386.945 199.56 384.44 201.562C384.296 201.73 384.003 201.989 383.561 202.337C383.112 202.608 382.67 202.957 382.234 203.384C381.791 203.732 381.388 204.078 381.023 204.42C380.736 204.757 380.602 205.042 380.621 205.275L382.389 227.471L382.903 228.018ZM425.522 240.493L425.171 240.521C425.426 243.714 425.716 246.865 426.042 249.974C426.44 252.999 426.769 256.147 427.029 259.417C427.104 260.352 427.139 261.29 427.136 262.23C427.204 263.087 427.152 263.914 426.981 264.711C426.803 265.431 426.421 266.049 425.835 266.566C425.321 266.999 424.48 267.262 423.312 267.355C421.131 267.529 419.523 266.52 418.486 264.33C417.805 260.701 417.286 257.137 416.929 253.639C416.566 250.063 416.041 246.421 415.353 242.714C415.111 241.636 414.56 240.622 413.7 239.671C412.919 238.715 412.491 237.769 412.416 236.835C412.361 236.134 412.548 235.531 412.978 235.027C413.486 234.516 413.706 233.832 413.637 232.976C413.153 226.901 412.481 220.92 411.62 215.032C410.831 209.06 410.198 203.076 409.72 197.079L409.562 195.094C410.045 194.271 410.553 193.761 411.085 193.562C411.618 193.362 412.352 193.226 413.286 193.151C415.545 192.971 417.041 193.557 417.776 194.909C418.505 196.184 418.985 197.791 419.218 199.732L422.745 230.722C422.841 230.949 422.989 231.329 423.188 231.862C423.459 232.311 423.789 232.519 424.179 232.488C424.724 232.445 425.727 232.248 427.188 231.896C428.643 231.467 430.176 231.031 431.786 230.589C433.391 230.07 434.839 229.562 436.132 229.068C437.419 228.495 438.164 228.004 438.366 227.596C438.323 227.051 438.245 226.078 438.134 224.676C438.1 223.268 438.061 222.291 438.018 221.746C437.757 218.475 437.461 215.247 437.129 212.06C436.797 208.873 436.383 205.653 435.889 202.401C435.846 201.856 435.627 200.58 435.232 198.574C434.83 196.49 434.417 194.25 433.991 191.854C433.565 189.459 433.155 187.258 432.76 185.252C432.436 183.161 432.253 181.844 432.21 181.299C432.126 181.227 432.068 180.996 432.037 180.607C432 180.14 431.975 179.828 431.963 179.672C431.882 178.66 432.173 177.892 432.837 177.369C433.579 176.84 434.378 176.541 435.234 176.473C437.103 176.324 438.513 176.799 439.463 177.899C440.49 178.993 441.267 180.381 441.793 182.063C441.939 182.914 442.17 184.345 442.488 186.358C442.805 188.37 443.173 190.535 443.593 192.853C444.012 195.171 444.384 197.375 444.707 199.465C445.102 201.471 445.37 202.861 445.51 203.633L445.658 205.502C445.689 205.892 445.79 206.667 445.961 207.829C446.204 208.907 446.38 209.638 446.489 210.021L450.304 257.916C450.799 259.209 451.119 260.281 451.265 261.131C451.489 261.975 451.648 262.982 451.741 264.15C451.815 265.084 451.623 266.119 451.165 267.252C450.778 268.302 449.962 268.876 448.716 268.976C447.626 269.062 446.592 268.87 445.614 268.4C444.714 267.923 443.879 267.284 443.11 266.483C442.419 265.676 441.838 264.782 441.368 263.801C440.892 262.741 440.61 261.666 440.523 260.576L438.606 236.512L425.522 240.493ZM448.247 261.489C447.874 256.817 447.817 252.158 448.074 247.513C448.331 242.869 448.51 238.231 448.611 233.599C448.593 233.365 448.591 232.856 448.607 232.071C448.617 231.208 448.623 230.306 448.627 229.365C448.708 228.418 448.757 227.552 448.772 226.768C448.86 225.898 448.894 225.347 448.876 225.113L448.839 224.646L450.842 187.808C450.562 186.263 450.687 184.882 451.217 183.664C451.818 182.362 453.015 181.64 454.806 181.497C456.734 181.108 458.353 181.254 459.661 181.933C461.041 182.529 462.205 183.376 463.155 184.476C464.105 185.576 464.908 186.805 465.565 188.164C466.222 189.522 466.908 190.761 467.624 191.879C468.1 192.938 468.67 194.186 469.333 195.622C470.074 197.053 470.924 198.866 471.882 201.062C472.919 203.252 474.113 205.94 475.464 209.124C476.892 212.301 478.533 216.168 480.384 220.723L480.889 221.153C481.409 220.798 482.381 220.211 483.805 219.392C485.307 218.567 486.845 217.7 488.418 216.791C490.069 215.876 491.607 215.009 493.031 214.19C494.455 213.371 495.469 212.82 496.073 212.537C496.139 212.375 496.324 212.243 496.629 212.14C497.006 211.953 497.269 211.815 497.419 211.724L497.653 211.706C498.431 211.644 499.04 211.909 499.479 212.501C499.912 213.015 500.15 213.544 500.194 214.09C500.262 214.946 500.126 215.702 499.786 216.356C499.447 217.01 499.026 217.631 498.524 218.22C498.094 218.724 497.586 219.235 497 219.752C496.493 220.262 496.105 220.803 495.836 221.373L484.737 228.135C484.456 228.549 484.325 228.873 484.344 229.107C484.394 229.73 484.783 230.678 485.511 231.953C486.318 233.221 486.946 234.229 487.398 234.976C487.669 235.425 488.126 236.251 488.771 237.453C489.415 238.656 490.102 239.894 490.83 241.169C491.559 242.443 492.245 243.681 492.889 244.884C493.605 246.003 494.099 246.786 494.37 247.235L494.398 247.585C494.621 250.389 493.331 251.902 490.527 252.126C489.671 252.194 488.769 252.187 487.822 252.106C486.869 251.947 486.121 251.419 485.58 250.521L476.422 234.44L475.371 234.524C472.591 237.018 469.614 239.489 466.439 241.936C463.264 244.383 459.986 246.525 456.606 248.362C456.284 251.209 456.16 254.08 456.234 256.974C456.385 259.861 456.654 262.74 457.039 265.609C456.484 266.515 455.914 267.227 455.328 267.744C454.736 268.183 453.895 268.445 452.805 268.532C451.714 268.619 450.878 268.451 450.296 268.027C449.707 267.525 449.268 266.933 448.979 266.251C448.683 265.491 448.501 264.682 448.433 263.826C448.365 262.969 448.303 262.19 448.247 261.489ZM456.838 237.998C459.1 236.878 461.259 235.452 463.316 233.721C465.45 231.983 467.477 230.372 469.396 228.887C469.618 228.712 469.878 228.535 470.177 228.354C470.554 228.167 470.889 227.945 471.182 227.686C471.475 227.428 471.842 227.124 472.285 226.775L472.21 225.841L459.025 196.091L458.521 195.661C458.324 196.147 458.118 197.495 457.903 199.707C457.765 201.912 457.602 204.786 457.414 208.328C457.297 211.785 457.146 215.794 456.961 220.355C456.854 224.909 456.732 229.778 456.596 234.961L456.838 237.998ZM499.496 261.286C498.651 252.654 497.732 244.067 496.738 235.525C495.816 226.9 495.01 218.264 494.322 209.62C494.272 208.997 494.185 207.907 494.061 206.349C493.931 204.714 493.795 203 493.652 201.209C493.587 199.412 493.493 197.734 493.369 196.177C493.244 194.619 493.158 193.529 493.108 192.906C493.32 191.635 493.71 190.624 494.277 189.874C494.838 189.045 495.781 188.578 497.105 188.473C498.428 188.367 499.631 188.703 500.711 189.479C501.786 190.177 502.678 191.046 503.388 192.087L522.797 223.222C522.887 223.372 523.197 223.817 523.726 224.559C524.255 225.3 524.649 225.817 524.908 226.11C524.992 226.182 525.115 226.251 525.277 226.316C525.439 226.382 525.523 226.453 525.529 226.531L525.912 225.443L533.06 189.723C533.674 188.577 534.084 187.33 534.29 185.981C534.567 184.548 534.848 183.154 535.132 181.799C535.494 180.438 535.94 179.149 536.47 177.931C537.078 176.707 538.013 175.653 539.274 174.768L540.209 174.694C542.312 174.526 543.919 175.025 545.031 176.191C546.136 177.278 546.955 178.702 547.487 180.462C548.013 182.145 548.314 183.962 548.392 185.916C548.54 187.785 548.71 189.417 548.899 190.813C548.943 191.358 549.065 192.406 549.267 193.957C549.547 195.503 549.849 197.32 550.172 199.411C550.495 201.501 550.831 203.747 551.179 206.149C551.521 208.473 551.814 210.683 552.06 212.779C552.383 214.87 552.646 216.691 552.848 218.242C553.127 219.787 553.286 220.793 553.323 221.261L553.36 221.728C553.494 222.423 553.743 223.578 554.107 225.195C554.471 226.812 554.844 228.546 555.226 230.396C555.681 232.162 556.09 233.854 556.454 235.471C556.818 237.088 557.102 238.201 557.308 238.812C557.416 239.195 557.58 239.77 557.798 240.536C558.093 241.297 558.395 242.135 558.703 243.051C559.083 243.882 559.421 244.678 559.716 245.439C560.012 246.199 560.25 246.728 560.431 247.028C560.262 248.844 559.906 250.283 559.364 251.345C558.893 252.323 557.684 252.889 555.737 253.044C555.504 253.063 555.153 253.091 554.686 253.128C554.213 253.087 553.937 253.07 553.859 253.076C553.613 252.939 553.115 252.587 552.364 252.02C551.691 251.446 551.307 251.046 551.21 250.819L548.83 244.542L543.203 218.187L543.12 217.136C542.93 215.74 542.773 214.264 542.649 212.706C542.519 211.071 542.35 209.438 542.142 207.809C542.011 206.174 541.803 204.544 541.517 202.921C541.231 201.298 540.799 199.805 540.22 198.44L539.691 199.187L533.979 233.734C533.969 234.597 533.966 235.538 533.969 236.557C533.965 237.497 533.845 238.447 533.608 239.407C533.365 240.288 532.956 241.065 532.383 241.738C531.81 242.411 530.942 242.832 529.78 243.003C529.319 243.118 528.807 243.081 528.243 242.891C527.679 242.701 527.109 242.432 526.533 242.086C525.957 241.741 525.416 241.352 524.912 240.922C524.479 240.408 524.205 239.921 524.09 239.46L507.374 217.044L504.53 212.333L505.331 222.38C505.709 227.13 506.159 231.797 506.681 236.379C507.274 240.878 507.76 245.502 508.139 250.253C508.17 250.642 508.226 251.343 508.306 252.355C508.381 253.29 508.423 254.305 508.431 255.402C508.518 256.492 508.602 257.543 508.683 258.556C508.757 259.49 508.81 260.152 508.841 260.542C508.604 261.501 508.202 262.356 507.635 263.107C507.145 263.851 506.355 264.267 505.265 264.353C503.785 264.471 502.599 264.331 501.705 263.932C500.883 263.449 500.146 262.567 499.496 261.286Z" fill="black"/>
</svg>
