<svg width="612" height="412" viewBox="0 0 612 412" fill="none" xmlns="http://www.w3.org/2000/svg">
<g filter="url(#filter0_d_114_9)">
<rect x="31" y="22" width="550" height="350" rx="28" fill="#FF0000"/>
<rect x="25" y="16" width="562" height="362" rx="34" stroke="white" stroke-width="12"/>
</g>
<path d="M212.469 95H201.395V43.8125H212.469V64.3789H232.367V43.8125H243.406V95H232.367V73.2734H212.469V95ZM286.789 95H252.23V43.8125H286.754V52.7422H263.305V64.3789H283.273V72.9922H263.305V86.1055H286.789V95ZM325.953 95H292.73V43.8125H303.77V86.1055H325.953V95ZM365.047 95H331.824V43.8125H342.863V86.1055H365.047V95ZM410.855 70.4609C410.855 75.6875 409.93 80.1875 408.078 83.9609C406.227 87.7344 403.648 90.6406 400.344 92.6797C397.062 94.6953 393.277 95.7031 388.988 95.7031C384.676 95.7031 380.855 94.6953 377.527 92.6797C374.223 90.6406 371.633 87.7344 369.758 83.9609C367.883 80.1875 366.945 75.6875 366.945 70.4609V68.3867C366.945 63.1602 367.871 58.6602 369.723 54.8867C371.598 51.0898 374.188 48.1836 377.492 46.168C380.797 44.1289 384.605 43.1094 388.918 43.1094C393.207 43.1094 397.004 44.1289 400.309 46.168C403.613 48.1836 406.191 51.0898 408.043 54.8867C409.918 58.6602 410.855 63.1602 410.855 68.3867V70.4609ZM399.711 68.3164C399.711 63.043 398.762 59.0469 396.863 56.3281C394.988 53.5859 392.34 52.2148 388.918 52.2148C385.449 52.2148 382.789 53.5859 380.938 56.3281C379.086 59.0469 378.16 63.043 378.16 68.3164V70.4609C378.16 75.6875 379.098 79.6953 380.973 82.4844C382.848 85.25 385.52 86.6328 388.988 86.6328C392.41 86.6328 395.047 85.25 396.898 82.4844C398.773 79.6953 399.711 75.6875 399.711 70.4609V68.3164Z" fill="white"/>
<path d="M243.281 114.938L247.512 127.113L251.73 114.938H256.547V132H252.855V127.582L253.219 119.484L248.754 132H246.246L241.793 119.484L242.156 127.582V132H238.465V114.938H243.281ZM265.488 122.508L268.922 114.938H272.93L267.363 125.824V132H263.625V125.824L258.047 114.938H262.066L265.488 122.508ZM294.375 132H290.695L284.074 121.02V132H280.395V114.938H284.074L290.707 125.93V114.938H294.375V132ZM299.859 132H295.934L302.273 114.938H305.684L312.059 132H308.133L307.02 128.602H300.973L299.859 132ZM301.945 125.625H306.035L303.984 119.426L301.945 125.625ZM318.398 114.938L322.629 127.113L326.848 114.938H331.664V132H327.973V127.582L328.336 119.484L323.871 132H321.363L316.91 119.484L317.273 127.582V132H313.582V114.938H318.398ZM346.148 132H334.629V114.938H346.137V117.914H338.32V121.793H344.977V124.664H338.32V129.035H346.148V132ZM358.02 132H354.34V114.938H358.02V132ZM370.008 127.5C370.008 127.117 369.926 126.785 369.762 126.504C369.598 126.223 369.281 125.957 368.812 125.707C368.352 125.449 367.668 125.176 366.762 124.887C365.73 124.559 364.781 124.168 363.914 123.715C363.047 123.254 362.348 122.684 361.816 122.004C361.293 121.324 361.031 120.484 361.031 119.484C361.031 118.523 361.305 117.688 361.852 116.977C362.398 116.258 363.148 115.699 364.102 115.301C365.062 114.902 366.16 114.703 367.395 114.703C368.66 114.703 369.766 114.926 370.711 115.371C371.656 115.816 372.387 116.438 372.902 117.234C373.426 118.023 373.688 118.938 373.688 119.977H370.02C370.02 119.289 369.801 118.727 369.363 118.289C368.926 117.844 368.25 117.621 367.336 117.621C366.453 117.621 365.793 117.805 365.355 118.172C364.926 118.539 364.711 118.984 364.711 119.508C364.711 120.055 364.996 120.508 365.566 120.867C366.145 121.227 366.961 121.57 368.016 121.898C369.875 122.469 371.285 123.188 372.246 124.055C373.207 124.922 373.688 126.062 373.688 127.477C373.688 128.984 373.125 130.156 372 130.992C370.875 131.82 369.367 132.234 367.477 132.234C366.617 132.234 365.773 132.125 364.945 131.906C364.125 131.68 363.379 131.336 362.707 130.875C362.043 130.406 361.512 129.816 361.113 129.105C360.715 128.395 360.516 127.551 360.516 126.574H364.207C364.207 127.582 364.5 128.293 365.086 128.707C365.68 129.121 366.477 129.328 367.477 129.328C368.344 129.328 368.98 129.152 369.387 128.801C369.801 128.449 370.008 128.016 370.008 127.5Z" fill="white"/>
<rect x="31" y="166" width="550" height="150" fill="white"/>
<defs>
<filter id="filter0_d_114_9" x="0" y="0" width="612" height="412" filterUnits="userSpaceOnUse" color-interpolation-filters="sRGB">
<feFlood flood-opacity="0" result="BackgroundImageFix"/>
<feColorMatrix in="SourceAlpha" type="matrix" values="0 0 0 0 0 0 0 0 0 0 0 0 0 0 0 0 0 0 127 0" result="hardAlpha"/>
<feMorphology radius="7" operator="erode" in="SourceAlpha" result="effect1_dropShadow_114_9"/>
<feOffset dy="9"/>
<feGaussianBlur stdDeviation="13"/>
<feComposite in2="hardAlpha" operator="out"/>
<feColorMatrix type="matrix" values="0 0 0 0 0 0 0 0 0 0 0 0 0 0 0 0 0 0 0.25 0"/>
<feBlend mode="normal" in2="BackgroundImageFix" result="effect1_dropShadow_114_9"/>
<feBlend mode="normal" in="SourceGraphic" in2="effect1_dropShadow_114_9" result="shape"/>
</filter>
</defs>
</svg>
